<svg width="305" height="69" viewBox="0 0 305 69" fill="none" xmlns="http://www.w3.org/2000/svg">
<path d="M48.1666 20.3718L19.8333 48.7051M19.8333 48.7051H48.1666M19.8333 48.7051V20.3718" stroke="black" stroke-width="4" stroke-linecap="round" stroke-linejoin="round"/>
<path d="M189.408 30.0385L185.344 25.0625V30.0385H183.104V18.8705H185.344V23.8785L189.408 18.8705H192.112L187.504 24.4065L192.24 30.0385H189.408ZM201.793 25.4145C201.793 25.7345 201.772 26.0225 201.729 26.2785H195.249C195.303 26.9185 195.527 27.4198 195.921 27.7825C196.316 28.1451 196.801 28.3265 197.377 28.3265C198.209 28.3265 198.801 27.9691 199.153 27.2545H201.569C201.313 28.1078 200.823 28.8118 200.097 29.3665C199.372 29.9105 198.481 30.1825 197.425 30.1825C196.572 30.1825 195.804 29.9958 195.121 29.6225C194.449 29.2385 193.921 28.6998 193.537 28.0065C193.164 27.3131 192.977 26.5131 192.977 25.6065C192.977 24.6891 193.164 23.8838 193.537 23.1905C193.911 22.4971 194.433 21.9638 195.105 21.5905C195.777 21.2171 196.551 21.0305 197.425 21.0305C198.268 21.0305 199.02 21.2118 199.681 21.5745C200.353 21.9371 200.871 22.4545 201.233 23.1265C201.607 23.7878 201.793 24.5505 201.793 25.4145ZM199.473 24.7745C199.463 24.1985 199.255 23.7398 198.849 23.3985C198.444 23.0465 197.948 22.8705 197.361 22.8705C196.807 22.8705 196.337 23.0411 195.953 23.3825C195.58 23.7131 195.351 24.1771 195.265 24.7745H199.473ZM204.404 20.1185C204.01 20.1185 203.679 19.9958 203.412 19.7505C203.156 19.4945 203.028 19.1798 203.028 18.8065C203.028 18.4331 203.156 18.1238 203.412 17.8785C203.679 17.6225 204.01 17.4945 204.404 17.4945C204.799 17.4945 205.124 17.6225 205.38 17.8785C205.647 18.1238 205.78 18.4331 205.78 18.8065C205.78 19.1798 205.647 19.4945 205.38 19.7505C205.124 19.9958 204.799 20.1185 204.404 20.1185ZM205.508 21.1745V30.0385H203.268V21.1745H205.508ZM212.474 21.0465C213.53 21.0465 214.383 21.3825 215.034 22.0545C215.684 22.7158 216.01 23.6438 216.01 24.8385V30.0385H213.77V25.1425C213.77 24.4385 213.594 23.8998 213.242 23.5265C212.89 23.1425 212.41 22.9505 211.802 22.9505C211.183 22.9505 210.692 23.1425 210.33 23.5265C209.978 23.8998 209.802 24.4385 209.802 25.1425V30.0385H207.562V21.1745H209.802V22.2785C210.1 21.8945 210.479 21.5958 210.938 21.3825C211.407 21.1585 211.919 21.0465 212.474 21.0465ZM217.404 25.5745C217.404 24.6785 217.58 23.8838 217.932 23.1905C218.294 22.4971 218.785 21.9638 219.404 21.5905C220.022 21.2171 220.71 21.0305 221.468 21.0305C222.044 21.0305 222.593 21.1585 223.116 21.4145C223.638 21.6598 224.054 21.9905 224.364 22.4065V18.1985H226.636V30.0385H224.364V28.7265C224.086 29.1638 223.697 29.5158 223.196 29.7825C222.694 30.0491 222.113 30.1825 221.452 30.1825C220.705 30.1825 220.022 29.9905 219.404 29.6065C218.785 29.2225 218.294 28.6838 217.932 27.9905C217.58 27.2865 217.404 26.4811 217.404 25.5745ZM224.38 25.6065C224.38 25.0625 224.273 24.5985 224.06 24.2145C223.846 23.8198 223.558 23.5211 223.196 23.3185C222.833 23.1051 222.444 22.9985 222.028 22.9985C221.612 22.9985 221.228 23.0998 220.876 23.3025C220.524 23.5051 220.236 23.8038 220.012 24.1985C219.798 24.5825 219.692 25.0411 219.692 25.5745C219.692 26.1078 219.798 26.5771 220.012 26.9825C220.236 27.3771 220.524 27.6811 220.876 27.8945C221.238 28.1078 221.622 28.2145 222.028 28.2145C222.444 28.2145 222.833 28.1131 223.196 27.9105C223.558 27.6971 223.846 27.3985 224.06 27.0145C224.273 26.6198 224.38 26.1505 224.38 25.6065ZM228.087 25.5745C228.087 24.6785 228.263 23.8838 228.615 23.1905C228.978 22.4971 229.463 21.9638 230.071 21.5905C230.69 21.2171 231.378 21.0305 232.135 21.0305C232.797 21.0305 233.373 21.1638 233.863 21.4305C234.365 21.6971 234.765 22.0331 235.063 22.4385V21.1745H237.319V30.0385H235.063V28.7425C234.775 29.1585 234.375 29.5051 233.863 29.7825C233.362 30.0491 232.781 30.1825 232.119 30.1825C231.373 30.1825 230.69 29.9905 230.071 29.6065C229.463 29.2225 228.978 28.6838 228.615 27.9905C228.263 27.2865 228.087 26.4811 228.087 25.5745ZM235.063 25.6065C235.063 25.0625 234.957 24.5985 234.743 24.2145C234.53 23.8198 234.242 23.5211 233.879 23.3185C233.517 23.1051 233.127 22.9985 232.711 22.9985C232.295 22.9985 231.911 23.0998 231.559 23.3025C231.207 23.5051 230.919 23.8038 230.695 24.1985C230.482 24.5825 230.375 25.0411 230.375 25.5745C230.375 26.1078 230.482 26.5771 230.695 26.9825C230.919 27.3771 231.207 27.6811 231.559 27.8945C231.922 28.1078 232.306 28.2145 232.711 28.2145C233.127 28.2145 233.517 28.1131 233.879 27.9105C234.242 27.6971 234.53 27.3985 234.743 27.0145C234.957 26.6198 235.063 26.1505 235.063 25.6065ZM244.339 21.0465C245.011 21.0465 245.608 21.1958 246.131 21.4945C246.654 21.7825 247.059 22.2145 247.347 22.7905C247.646 23.3558 247.795 24.0385 247.795 24.8385V30.0385H245.555V25.1425C245.555 24.4385 245.379 23.8998 245.027 23.5265C244.675 23.1425 244.195 22.9505 243.587 22.9505C242.968 22.9505 242.478 23.1425 242.115 23.5265C241.763 23.8998 241.587 24.4385 241.587 25.1425V30.0385H239.347V18.1985H241.587V22.2785C241.875 21.8945 242.259 21.5958 242.739 21.3825C243.219 21.1585 243.752 21.0465 244.339 21.0465ZM249.189 25.5745C249.189 24.6785 249.365 23.8838 249.717 23.1905C250.08 22.4971 250.565 21.9638 251.173 21.5905C251.792 21.2171 252.48 21.0305 253.237 21.0305C253.899 21.0305 254.475 21.1638 254.965 21.4305C255.467 21.6971 255.867 22.0331 256.165 22.4385V21.1745H258.421V30.0385H256.165V28.7425C255.877 29.1585 255.477 29.5051 254.965 29.7825C254.464 30.0491 253.883 30.1825 253.221 30.1825C252.475 30.1825 251.792 29.9905 251.173 29.6065C250.565 29.2225 250.08 28.6838 249.717 27.9905C249.365 27.2865 249.189 26.4811 249.189 25.5745ZM256.165 25.6065C256.165 25.0625 256.059 24.5985 255.845 24.2145C255.632 23.8198 255.344 23.5211 254.981 23.3185C254.619 23.1051 254.229 22.9985 253.813 22.9985C253.397 22.9985 253.013 23.0998 252.661 23.3025C252.309 23.5051 252.021 23.8038 251.797 24.1985C251.584 24.5825 251.477 25.0411 251.477 25.5745C251.477 26.1078 251.584 26.5771 251.797 26.9825C252.021 27.3771 252.309 27.6811 252.661 27.8945C253.024 28.1078 253.408 28.2145 253.813 28.2145C254.229 28.2145 254.619 28.1131 254.981 27.9105C255.344 27.6971 255.632 27.3985 255.845 27.0145C256.059 26.6198 256.165 26.1505 256.165 25.6065ZM265.361 21.0465C266.417 21.0465 267.27 21.3825 267.921 22.0545C268.572 22.7158 268.897 23.6438 268.897 24.8385V30.0385H266.657V25.1425C266.657 24.4385 266.481 23.8998 266.129 23.5265C265.777 23.1425 265.297 22.9505 264.689 22.9505C264.07 22.9505 263.58 23.1425 263.217 23.5265C262.865 23.8998 262.689 24.4385 262.689 25.1425V30.0385H260.449V21.1745H262.689V22.2785C262.988 21.8945 263.366 21.5958 263.825 21.3825C264.294 21.1585 264.806 21.0465 265.361 21.0465ZM273.944 25.5745C273.944 24.6785 274.12 23.8838 274.472 23.1905C274.834 22.4971 275.325 21.9638 275.944 21.5905C276.562 21.2171 277.25 21.0305 278.008 21.0305C278.584 21.0305 279.133 21.1585 279.656 21.4145C280.178 21.6598 280.594 21.9905 280.904 22.4065V18.1985H283.176V30.0385H280.904V28.7265C280.626 29.1638 280.237 29.5158 279.736 29.7825C279.234 30.0491 278.653 30.1825 277.992 30.1825C277.245 30.1825 276.562 29.9905 275.944 29.6065C275.325 29.2225 274.834 28.6838 274.472 27.9905C274.12 27.2865 273.944 26.4811 273.944 25.5745ZM280.92 25.6065C280.92 25.0625 280.813 24.5985 280.6 24.2145C280.386 23.8198 280.098 23.5211 279.736 23.3185C279.373 23.1051 278.984 22.9985 278.568 22.9985C278.152 22.9985 277.768 23.0998 277.416 23.3025C277.064 23.5051 276.776 23.8038 276.552 24.1985C276.338 24.5825 276.232 25.0411 276.232 25.5745C276.232 26.1078 276.338 26.5771 276.552 26.9825C276.776 27.3771 277.064 27.6811 277.416 27.8945C277.778 28.1078 278.162 28.2145 278.568 28.2145C278.984 28.2145 279.373 28.1131 279.736 27.9105C280.098 27.6971 280.386 27.3985 280.6 27.0145C280.813 26.6198 280.92 26.1505 280.92 25.6065ZM286.339 20.1185C285.945 20.1185 285.614 19.9958 285.347 19.7505C285.091 19.4945 284.963 19.1798 284.963 18.8065C284.963 18.4331 285.091 18.1238 285.347 17.8785C285.614 17.6225 285.945 17.4945 286.339 17.4945C286.734 17.4945 287.059 17.6225 287.315 17.8785C287.582 18.1238 287.715 18.4331 287.715 18.8065C287.715 19.1798 287.582 19.4945 287.315 19.7505C287.059 19.9958 286.734 20.1185 286.339 20.1185ZM287.443 21.1745V30.0385H285.203V21.1745H287.443ZM189.084 41.2805V42.3165H186.424V51.0385H185.15V42.3165H182.476V41.2805H189.084ZM191.17 42.1205C190.928 42.1205 190.722 42.0365 190.554 41.8685C190.386 41.7005 190.302 41.4951 190.302 41.2525C190.302 41.0098 190.386 40.8045 190.554 40.6365C190.722 40.4685 190.928 40.3845 191.17 40.3845C191.404 40.3845 191.6 40.4685 191.758 40.6365C191.926 40.8045 192.01 41.0098 192.01 41.2525C192.01 41.4951 191.926 41.7005 191.758 41.8685C191.6 42.0365 191.404 42.1205 191.17 42.1205ZM191.786 43.3665V51.0385H190.512V43.3665H191.786ZM203.044 43.2265C203.641 43.2265 204.173 43.3525 204.64 43.6045C205.106 43.8471 205.475 44.2158 205.746 44.7105C206.016 45.2051 206.152 45.8071 206.152 46.5165V51.0385H204.892V46.6985C204.892 45.9331 204.7 45.3498 204.318 44.9485C203.944 44.5378 203.436 44.3325 202.792 44.3325C202.129 44.3325 201.602 44.5471 201.21 44.9765C200.818 45.3965 200.622 46.0078 200.622 46.8105V51.0385H199.362V46.6985C199.362 45.9331 199.17 45.3498 198.788 44.9485C198.414 44.5378 197.906 44.3325 197.262 44.3325C196.599 44.3325 196.072 44.5471 195.68 44.9765C195.288 45.3965 195.092 46.0078 195.092 46.8105V51.0385H193.818V43.3665H195.092V44.4725C195.344 44.0711 195.68 43.7631 196.1 43.5485C196.529 43.3338 197 43.2265 197.514 43.2265C198.158 43.2265 198.727 43.3711 199.222 43.6605C199.716 43.9498 200.085 44.3745 200.328 44.9345C200.542 44.3931 200.897 43.9731 201.392 43.6745C201.886 43.3758 202.437 43.2265 203.044 43.2265ZM214.905 43.3665V51.0385H213.631V49.9045C213.389 50.2965 213.048 50.6045 212.609 50.8285C212.18 51.0431 211.704 51.1505 211.181 51.1505C210.584 51.1505 210.047 51.0291 209.571 50.7865C209.095 50.5345 208.717 50.1611 208.437 49.6665C208.167 49.1718 208.031 48.5698 208.031 47.8605V43.3665H209.291V47.6925C209.291 48.4485 209.483 49.0318 209.865 49.4425C210.248 49.8438 210.771 50.0445 211.433 50.0445C212.115 50.0445 212.651 49.8345 213.043 49.4145C213.435 48.9945 213.631 48.3831 213.631 47.5805V43.3665H214.905ZM218.19 44.6125C218.414 44.1738 218.732 43.8331 219.142 43.5905C219.562 43.3478 220.071 43.2265 220.668 43.2265V44.5425H220.332C218.904 44.5425 218.19 45.3171 218.19 46.8665V51.0385H216.916V43.3665H218.19V44.6125ZM233.264 51.0385H231.99L226.866 43.2685V51.0385H225.592V41.2665H226.866L231.99 49.0225V41.2665H233.264V51.0385ZM242.099 43.3665V51.0385H240.825V49.9045C240.583 50.2965 240.242 50.6045 239.803 50.8285C239.374 51.0431 238.898 51.1505 238.375 51.1505C237.778 51.1505 237.241 51.0291 236.765 50.7865C236.289 50.5345 235.911 50.1611 235.631 49.6665C235.361 49.1718 235.225 48.5698 235.225 47.8605V43.3665H236.485V47.6925C236.485 48.4485 236.677 49.0318 237.059 49.4425C237.442 49.8438 237.965 50.0445 238.627 50.0445C239.309 50.0445 239.845 49.8345 240.237 49.4145C240.629 48.9945 240.825 48.3831 240.825 47.5805V43.3665H242.099ZM246.826 51.1645C246.238 51.1645 245.711 51.0665 245.244 50.8705C244.778 50.6651 244.409 50.3851 244.138 50.0305C243.868 49.6665 243.718 49.2511 243.69 48.7845H245.006C245.044 49.1671 245.221 49.4798 245.538 49.7225C245.865 49.9651 246.29 50.0865 246.812 50.0865C247.298 50.0865 247.68 49.9791 247.96 49.7645C248.24 49.5498 248.38 49.2791 248.38 48.9525C248.38 48.6165 248.231 48.3691 247.932 48.2105C247.634 48.0425 247.172 47.8791 246.546 47.7205C245.977 47.5711 245.51 47.4218 245.146 47.2725C244.792 47.1138 244.484 46.8851 244.222 46.5865C243.97 46.2785 243.844 45.8771 243.844 45.3825C243.844 44.9905 243.961 44.6311 244.194 44.3045C244.428 43.9778 244.759 43.7211 245.188 43.5345C245.618 43.3385 246.108 43.2405 246.658 43.2405C247.508 43.2405 248.194 43.4551 248.716 43.8845C249.239 44.3138 249.519 44.9018 249.556 45.6485H248.282C248.254 45.2471 248.091 44.9251 247.792 44.6825C247.503 44.4398 247.111 44.3185 246.616 44.3185C246.159 44.3185 245.795 44.4165 245.524 44.6125C245.254 44.8085 245.118 45.0651 245.118 45.3825C245.118 45.6345 245.198 45.8445 245.356 46.0125C245.524 46.1711 245.73 46.3018 245.972 46.4045C246.224 46.4978 246.57 46.6051 247.008 46.7265C247.559 46.8758 248.007 47.0251 248.352 47.1745C248.698 47.3145 248.992 47.5291 249.234 47.8185C249.486 48.1078 249.617 48.4858 249.626 48.9525C249.626 49.3725 249.51 49.7505 249.276 50.0865C249.043 50.4225 248.712 50.6885 248.282 50.8845C247.862 51.0711 247.377 51.1645 246.826 51.1645ZM250.809 47.1745C250.809 46.3905 250.967 45.7045 251.285 45.1165C251.602 44.5191 252.036 44.0571 252.587 43.7305C253.147 43.4038 253.767 43.2405 254.449 43.2405C255.121 43.2405 255.704 43.3851 256.199 43.6745C256.693 43.9638 257.062 44.3278 257.305 44.7665V43.3665H258.593V51.0385H257.305V49.6105C257.053 50.0585 256.675 50.4318 256.171 50.7305C255.676 51.0198 255.097 51.1645 254.435 51.1645C253.753 51.1645 253.137 50.9965 252.587 50.6605C252.036 50.3245 251.602 49.8531 251.285 49.2465C250.967 48.6398 250.809 47.9491 250.809 47.1745ZM257.305 47.1885C257.305 46.6098 257.188 46.1058 256.955 45.6765C256.721 45.2471 256.404 44.9205 256.003 44.6965C255.611 44.4631 255.177 44.3465 254.701 44.3465C254.225 44.3465 253.791 44.4585 253.399 44.6825C253.007 44.9065 252.694 45.2331 252.461 45.6625C252.227 46.0918 252.111 46.5958 252.111 47.1745C252.111 47.7625 252.227 48.2758 252.461 48.7145C252.694 49.1438 253.007 49.4751 253.399 49.7085C253.791 49.9325 254.225 50.0445 254.701 50.0445C255.177 50.0445 255.611 49.9325 256.003 49.7085C256.404 49.4751 256.721 49.1438 256.955 48.7145C257.188 48.2758 257.305 47.7671 257.305 47.1885ZM264.344 43.2265C265.277 43.2265 266.033 43.5111 266.612 44.0805C267.19 44.6405 267.48 45.4525 267.48 46.5165V51.0385H266.22V46.6985C266.22 45.9331 266.028 45.3498 265.646 44.9485C265.263 44.5378 264.74 44.3325 264.078 44.3325C263.406 44.3325 262.869 44.5425 262.468 44.9625C262.076 45.3825 261.88 45.9938 261.88 46.7965V51.0385H260.606V43.3665H261.88V44.4585C262.132 44.0665 262.472 43.7631 262.902 43.5485C263.34 43.3338 263.821 43.2265 264.344 43.2265ZM270.975 44.4165V48.9385C270.975 49.3118 271.054 49.5778 271.213 49.7365C271.371 49.8858 271.647 49.9605 272.039 49.9605H272.977V51.0385H271.829C271.119 51.0385 270.587 50.8751 270.233 50.5485C269.878 50.2218 269.701 49.6851 269.701 48.9385V44.4165H268.707V43.3665H269.701V41.4345H270.975V43.3665H272.977V44.4165H270.975ZM273.904 47.1745C273.904 46.3905 274.063 45.7045 274.38 45.1165C274.698 44.5191 275.132 44.0571 275.682 43.7305C276.242 43.4038 276.863 43.2405 277.544 43.2405C278.216 43.2405 278.8 43.3851 279.294 43.6745C279.789 43.9638 280.158 44.3278 280.4 44.7665V43.3665H281.688V51.0385H280.4V49.6105C280.148 50.0585 279.77 50.4318 279.266 50.7305C278.772 51.0198 278.193 51.1645 277.53 51.1645C276.849 51.1645 276.233 50.9965 275.682 50.6605C275.132 50.3245 274.698 49.8531 274.38 49.2465C274.063 48.6398 273.904 47.9491 273.904 47.1745ZM280.4 47.1885C280.4 46.6098 280.284 46.1058 280.05 45.6765C279.817 45.2471 279.5 44.9205 279.098 44.6965C278.706 44.4631 278.272 44.3465 277.796 44.3465C277.32 44.3465 276.886 44.4585 276.494 44.6825C276.102 44.9065 275.79 45.2331 275.556 45.6625C275.323 46.0918 275.206 46.5958 275.206 47.1745C275.206 47.7625 275.323 48.2758 275.556 48.7145C275.79 49.1438 276.102 49.4751 276.494 49.7085C276.886 49.9325 277.32 50.0445 277.796 50.0445C278.272 50.0445 278.706 49.9325 279.098 49.7085C279.5 49.4751 279.817 49.1438 280.05 48.7145C280.284 48.2758 280.4 47.7671 280.4 47.1885ZM284.975 44.6125C285.199 44.1738 285.517 43.8331 285.927 43.5905C286.347 43.3478 286.856 43.2265 287.453 43.2265V44.5425H287.117C285.689 44.5425 284.975 45.3171 284.975 46.8665V51.0385H283.701V43.3665H284.975V44.6125ZM288.308 47.1745C288.308 46.3905 288.467 45.7045 288.784 45.1165C289.101 44.5191 289.535 44.0571 290.086 43.7305C290.646 43.4038 291.267 43.2405 291.948 43.2405C292.62 43.2405 293.203 43.3851 293.698 43.6745C294.193 43.9638 294.561 44.3278 294.804 44.7665V43.3665H296.092V51.0385H294.804V49.6105C294.552 50.0585 294.174 50.4318 293.67 50.7305C293.175 51.0198 292.597 51.1645 291.934 51.1645C291.253 51.1645 290.637 50.9965 290.086 50.6605C289.535 50.3245 289.101 49.8531 288.784 49.2465C288.467 48.6398 288.308 47.9491 288.308 47.1745ZM294.804 47.1885C294.804 46.6098 294.687 46.1058 294.454 45.6765C294.221 45.2471 293.903 44.9205 293.502 44.6965C293.11 44.4631 292.676 44.3465 292.2 44.3465C291.724 44.3465 291.29 44.4585 290.898 44.6825C290.506 44.9065 290.193 45.2331 289.96 45.6625C289.727 46.0918 289.61 46.5958 289.61 47.1745C289.61 47.7625 289.727 48.2758 289.96 48.7145C290.193 49.1438 290.506 49.4751 290.898 49.7085C291.29 49.9325 291.724 50.0445 292.2 50.0445C292.676 50.0445 293.11 49.9325 293.502 49.7085C293.903 49.4751 294.221 49.1438 294.454 48.7145C294.687 48.2758 294.804 47.7671 294.804 47.1885Z" fill="black"/>
</svg>
