<svg width="30" height="30" viewBox="0 0 30 30" fill="none" xmlns="http://www.w3.org/2000/svg">
<rect x="0.5" y="1" width="29" height="28" rx="14" stroke="black"/>
<path d="M9.0348 11.7273V19H7.71733V11.7273H9.0348ZM16.438 11.7273V19H15.2662L11.8393 14.0462H11.7789V19H10.4615V11.7273H11.6404L15.0637 16.6847H15.1277V11.7273H16.438ZM20.3381 19H17.8736V11.7273H20.3878C21.1098 11.7273 21.7301 11.8729 22.2486 12.1641C22.7694 12.4529 23.1695 12.8684 23.4489 13.4105C23.7282 13.9527 23.8679 14.6013 23.8679 15.3565C23.8679 16.1141 23.727 16.7652 23.4453 17.3097C23.166 17.8542 22.7623 18.272 22.2344 18.5632C21.7088 18.8544 21.0767 19 20.3381 19ZM19.1911 17.8601H20.2741C20.7808 17.8601 21.2034 17.7678 21.5419 17.5831C21.8804 17.3961 22.1349 17.1179 22.3054 16.7486C22.4759 16.3769 22.5611 15.9129 22.5611 15.3565C22.5611 14.8002 22.4759 14.3385 22.3054 13.9716C22.1349 13.6023 21.8828 13.3265 21.549 13.1442C21.2176 12.9595 20.8056 12.8672 20.3132 12.8672H19.1911V17.8601Z" fill="black"/>
</svg>
