<svg width="101" height="42" viewBox="0 0 101 42" fill="none" xmlns="http://www.w3.org/2000/svg">
<rect width="101" height="42" rx="21" fill="white"/>
<path d="M21 11.8333L23.8325 17.5717L30.1667 18.4975L25.5833 22.9617L26.665 29.2683L21 26.2892L15.335 29.2683L16.4167 22.9617L11.8333 18.4975L18.1675 17.5717L21 11.8333Z" fill="#FFDC21" stroke="#FFDC21" stroke-width="2" stroke-linecap="round" stroke-linejoin="round"/>
<path d="M42.736 24.068V22.692L48.112 14.98H50.32V22.484H51.808V24.068H50.32V26.5H48.528V24.068H42.736ZM48.608 16.836L44.832 22.484H48.608V16.836ZM54.4554 26.612C54.1247 26.612 53.8474 26.5 53.6234 26.276C53.3994 26.052 53.2874 25.7747 53.2874 25.444C53.2874 25.1133 53.3994 24.836 53.6234 24.612C53.8474 24.388 54.1247 24.276 54.4554 24.276C54.7754 24.276 55.0474 24.388 55.2714 24.612C55.4954 24.836 55.6074 25.1133 55.6074 25.444C55.6074 25.7747 55.4954 26.052 55.2714 26.276C55.0474 26.5 54.7754 26.612 54.4554 26.612ZM65.0188 16.404H59.6587V19.588C59.8827 19.2893 60.2134 19.0387 60.6507 18.836C61.0987 18.6333 61.5734 18.532 62.0747 18.532C62.9707 18.532 63.6961 18.724 64.2508 19.108C64.8161 19.492 65.2161 19.9773 65.4508 20.564C65.6961 21.1507 65.8188 21.7693 65.8188 22.42C65.8188 23.2093 65.6641 23.9133 65.3547 24.532C65.0561 25.14 64.6027 25.62 63.9948 25.972C63.3974 26.324 62.6614 26.5 61.7867 26.5C60.6241 26.5 59.6907 26.212 58.9867 25.636C58.2827 25.06 57.8614 24.2973 57.7227 23.348H59.4987C59.6161 23.8493 59.8774 24.2493 60.2827 24.548C60.6881 24.836 61.1947 24.98 61.8028 24.98C62.5601 24.98 63.1254 24.7507 63.4988 24.292C63.8828 23.8333 64.0747 23.2253 64.0747 22.468C64.0747 21.7 63.8828 21.1133 63.4988 20.708C63.1148 20.292 62.5494 20.084 61.8028 20.084C61.2801 20.084 60.8374 20.2173 60.4747 20.484C60.1227 20.74 59.8667 21.092 59.7067 21.54H57.9787V14.804H65.0188V16.404ZM74.0375 11.396L69.6855 29.3H67.8935L72.2295 11.396H74.0375ZM83.7762 16.404H78.4162V19.588C78.6402 19.2893 78.9709 19.0387 79.4082 18.836C79.8562 18.6333 80.3309 18.532 80.8322 18.532C81.7282 18.532 82.4536 18.724 83.0082 19.108C83.5736 19.492 83.9736 19.9773 84.2083 20.564C84.4536 21.1507 84.5763 21.7693 84.5763 22.42C84.5763 23.2093 84.4216 23.9133 84.1122 24.532C83.8136 25.14 83.3602 25.62 82.7522 25.972C82.1549 26.324 81.4189 26.5 80.5442 26.5C79.3816 26.5 78.4482 26.212 77.7442 25.636C77.0402 25.06 76.6189 24.2973 76.4802 23.348H78.2562C78.3736 23.8493 78.6349 24.2493 79.0402 24.548C79.4456 24.836 79.9522 24.98 80.5602 24.98C81.3176 24.98 81.8829 24.7507 82.2562 24.292C82.6402 23.8333 82.8322 23.2253 82.8322 22.468C82.8322 21.7 82.6402 21.1133 82.2562 20.708C81.8722 20.292 81.3069 20.084 80.5602 20.084C80.0376 20.084 79.5949 20.2173 79.2322 20.484C78.8802 20.74 78.6242 21.092 78.4642 21.54H76.7362V14.804H83.7762V16.404Z" fill="black"/>
</svg>
